<svg width="286" height="38" viewBox="0 0 286 38" fill="none" xmlns="http://www.w3.org/2000/svg">
<path d="M9.96 31.066L0.622 20.9L9.96 10.734H19.85L10.466 20.9L19.85 31.066H9.96ZM24.6239 24.12C24.6239 21.4827 25.1146 19.1673 26.0959 17.174C27.1079 15.1807 28.4726 13.6473 30.1899 12.574C31.9073 11.5007 33.8239 10.964 35.9399 10.964C37.6266 10.964 39.1599 11.3167 40.5399 12.022C41.9506 12.7273 43.0546 13.678 43.8519 14.874V2.96H51.7179V37H43.8519V33.32C43.1159 34.5467 42.0579 35.528 40.6779 36.264C39.3286 37 37.7493 37.368 35.9399 37.368C33.8239 37.368 31.9073 36.8313 30.1899 35.758C28.4726 34.654 27.1079 33.1053 26.0959 31.112C25.1146 29.088 24.6239 26.7573 24.6239 24.12ZM43.8519 24.166C43.8519 22.2033 43.2999 20.6547 42.1959 19.52C41.1226 18.3853 39.8039 17.818 38.2399 17.818C36.6759 17.818 35.3419 18.3853 34.2379 19.52C33.1646 20.624 32.6279 22.1573 32.6279 24.12C32.6279 26.0827 33.1646 27.6467 34.2379 28.812C35.3419 29.9467 36.6759 30.514 38.2399 30.514C39.8039 30.514 41.1226 29.9467 42.1959 28.812C43.2999 27.6773 43.8519 26.1287 43.8519 24.166ZM61.3646 8.664C59.9846 8.664 58.85 8.26533 57.9606 7.468C57.102 6.64 56.6726 5.628 56.6726 4.432C56.6726 3.20533 57.102 2.19333 57.9606 1.396C58.85 0.567997 59.9846 0.153997 61.3646 0.153997C62.714 0.153997 63.818 0.567997 64.6766 1.396C65.566 2.19333 66.0106 3.20533 66.0106 4.432C66.0106 5.628 65.566 6.64 64.6766 7.468C63.818 8.26533 62.714 8.664 61.3646 8.664ZM65.2746 11.332V37H57.4086V11.332H65.2746ZM82.521 29.64L88.087 11.332H96.459L87.351 37H77.645L68.537 11.332H76.955L82.521 29.64Z" fill="#6E00FF"/>
<path d="M107.954 24.166C107.954 21.498 108.491 19.1673 109.564 17.174C110.668 15.1807 112.186 13.6473 114.118 12.574C116.081 11.5007 118.319 10.964 120.834 10.964C124.054 10.964 126.737 11.8073 128.884 13.494C131.061 15.1807 132.487 17.5573 133.162 20.624H124.79C124.085 18.6613 122.72 17.68 120.696 17.68C119.255 17.68 118.105 18.2473 117.246 19.382C116.387 20.486 115.958 22.0807 115.958 24.166C115.958 26.2513 116.387 27.8613 117.246 28.996C118.105 30.1 119.255 30.652 120.696 30.652C122.72 30.652 124.085 29.6707 124.79 27.708H133.162C132.487 30.7133 131.061 33.0747 128.884 34.792C126.707 36.5093 124.023 37.368 120.834 37.368C118.319 37.368 116.081 36.8313 114.118 35.758C112.186 34.6847 110.668 33.1513 109.564 31.158C108.491 29.1647 107.954 26.834 107.954 24.166ZM145.236 2.96V37H137.37V2.96H145.236ZM149.372 24.12C149.372 21.4827 149.863 19.1673 150.844 17.174C151.856 15.1807 153.221 13.6473 154.938 12.574C156.655 11.5007 158.572 10.964 160.688 10.964C162.497 10.964 164.077 11.332 165.426 12.068C166.806 12.804 167.864 13.77 168.6 14.966V11.332H176.466V37H168.6V33.366C167.833 34.562 166.76 35.528 165.38 36.264C164.031 37 162.451 37.368 160.642 37.368C158.557 37.368 156.655 36.8313 154.938 35.758C153.221 34.654 151.856 33.1053 150.844 31.112C149.863 29.088 149.372 26.7573 149.372 24.12ZM168.6 24.166C168.6 22.2033 168.048 20.6547 166.944 19.52C165.871 18.3853 164.552 17.818 162.988 17.818C161.424 17.818 160.09 18.3853 158.986 19.52C157.913 20.624 157.376 22.1573 157.376 24.12C157.376 26.0827 157.913 27.6467 158.986 28.812C160.09 29.9467 161.424 30.514 162.988 30.514C164.552 30.514 165.871 29.9467 166.944 28.812C168.048 27.6773 168.6 26.1287 168.6 24.166ZM192.599 37.368C190.36 37.368 188.367 36.9847 186.619 36.218C184.871 35.4513 183.491 34.4087 182.479 33.09C181.467 31.7407 180.899 30.238 180.777 28.582H188.551C188.643 29.4713 189.057 30.192 189.793 30.744C190.529 31.296 191.433 31.572 192.507 31.572C193.488 31.572 194.239 31.388 194.761 31.02C195.313 30.6213 195.589 30.1153 195.589 29.502C195.589 28.766 195.205 28.2293 194.439 27.892C193.672 27.524 192.43 27.1253 190.713 26.696C188.873 26.2667 187.339 25.822 186.113 25.362C184.886 24.8713 183.828 24.12 182.939 23.108C182.049 22.0653 181.605 20.67 181.605 18.922C181.605 17.45 182.003 16.116 182.801 14.92C183.629 13.6933 184.825 12.7273 186.389 12.022C187.983 11.3167 189.869 10.964 192.047 10.964C195.267 10.964 197.797 11.7613 199.637 13.356C201.507 14.9507 202.581 17.0667 202.857 19.704H195.589C195.466 18.8147 195.067 18.1093 194.393 17.588C193.749 17.0667 192.89 16.806 191.817 16.806C190.897 16.806 190.191 16.99 189.701 17.358C189.21 17.6953 188.965 18.1707 188.965 18.784C188.965 19.52 189.348 20.072 190.115 20.44C190.912 20.808 192.139 21.176 193.795 21.544C195.696 22.0347 197.245 22.5253 198.441 23.016C199.637 23.476 200.679 24.2427 201.569 25.316C202.489 26.3587 202.964 27.7693 202.995 29.548C202.995 31.0507 202.565 32.4 201.707 33.596C200.879 34.7613 199.667 35.6813 198.073 36.356C196.509 37.0307 194.684 37.368 192.599 37.368ZM218.249 37.368C216.01 37.368 214.017 36.9847 212.269 36.218C210.521 35.4513 209.141 34.4087 208.129 33.09C207.117 31.7407 206.55 30.238 206.427 28.582H214.201C214.293 29.4713 214.707 30.192 215.443 30.744C216.179 31.296 217.084 31.572 218.157 31.572C219.138 31.572 219.89 31.388 220.411 31.02C220.963 30.6213 221.239 30.1153 221.239 29.502C221.239 28.766 220.856 28.2293 220.089 27.892C219.322 27.524 218.08 27.1253 216.363 26.696C214.523 26.2667 212.99 25.822 211.763 25.362C210.536 24.8713 209.478 24.12 208.589 23.108C207.7 22.0653 207.255 20.67 207.255 18.922C207.255 17.45 207.654 16.116 208.451 14.92C209.279 13.6933 210.475 12.7273 212.039 12.022C213.634 11.3167 215.52 10.964 217.697 10.964C220.917 10.964 223.447 11.7613 225.287 13.356C227.158 14.9507 228.231 17.0667 228.507 19.704H221.239C221.116 18.8147 220.718 18.1093 220.043 17.588C219.399 17.0667 218.54 16.806 217.467 16.806C216.547 16.806 215.842 16.99 215.351 17.358C214.86 17.6953 214.615 18.1707 214.615 18.784C214.615 19.52 214.998 20.072 215.765 20.44C216.562 20.808 217.789 21.176 219.445 21.544C221.346 22.0347 222.895 22.5253 224.091 23.016C225.287 23.476 226.33 24.2427 227.219 25.316C228.139 26.3587 228.614 27.7693 228.645 29.548C228.645 31.0507 228.216 32.4 227.357 33.596C226.529 34.7613 225.318 35.6813 223.723 36.356C222.159 37.0307 220.334 37.368 218.249 37.368ZM259.493 11.562V18.508H233.733V11.562H259.493ZM259.493 23.292V30.238H233.733V23.292H259.493ZM267.281 4.708H275.331L270.179 17.036H264.889L267.281 4.708ZM277.723 4.708H285.773L280.621 17.036H275.331L277.723 4.708Z" fill="#D5D3D8"/>
</svg>
