<svg width="75" height="75" viewBox="0 0 75 75" fill="none" xmlns="http://www.w3.org/2000/svg">
<path d="M28.9255 70.4205L0 75L4.57913 46.0745L33.3432 24.0105L40.8839 31.5512L26.7719 45.6633C24.8486 44.7827 22.5018 45.1276 20.918 46.7114C18.8819 48.7474 18.8819 52.0467 20.9176 54.082C22.9533 56.1174 26.2526 56.1174 28.2882 54.082C29.872 52.4982 30.2173 50.1517 29.3364 48.2277L43.4484 34.1157L50.9891 41.6564L28.9255 70.4205ZM47.9575 7.91428L46.1166 6.07335L34.4461 17.7442L57.2558 40.5539L68.9267 28.8834L67.0854 27.0421L75 20.5491L54.4498 0L47.9575 7.91428Z" fill="#6E00FF"/>
</svg>
