<svg width="75" height="75" viewBox="0 0 75 75" fill="none" xmlns="http://www.w3.org/2000/svg">
<g clip-path="url(#clip0_8_228)">
<path d="M36.6469 2.44137e-05C33.625 0.00314941 30.6656 0.268774 27.7906 0.775024L28.0969 0.731274C20.525 2.06877 19.1531 4.86877 19.1531 10.0313V16.85H37.0469V19.1219H12.4406C12.3781 19.1219 12.3062 19.1188 12.2344 19.1188C6.80624 19.1188 2.28436 22.9906 1.27499 28.1219L1.26249 28.1938C0.462488 30.9188 0.00311279 34.05 0.00311279 37.2875C0.00311279 40.525 0.462488 43.6563 1.32186 46.6156L1.26249 46.3781C2.53436 51.675 5.57186 55.4469 10.7625 55.4469H16.9156V47.2719C17.0562 41.1688 21.9844 36.2625 28.0844 36.1563H28.0937H45.9656C50.9156 36.1156 54.9125 32.0969 54.9125 27.1406C54.9125 27.1125 54.9125 27.0875 54.9125 27.0594V27.0625V10.025C54.5875 5.1469 50.8062 1.24377 46.0125 0.728149L45.9687 0.725024C43.2625 0.259399 40.1469 -0.00622559 36.9719 -0.00622559C36.8594 -0.00622559 36.75 -0.00622559 36.6375 -0.00622559H36.6531L36.6469 2.44137e-05ZM26.9719 5.4844H27.025C28.9094 5.4844 30.4344 7.01252 30.4344 8.89377C30.4344 10.775 28.9062 12.3031 27.025 12.3031C25.1469 12.3031 23.6219 10.7813 23.6156 8.90315C23.6156 8.8969 23.6156 8.88752 23.6156 8.87815C23.6156 7.01565 25.1156 5.50315 26.9719 5.4844H26.975H26.9719Z" fill="#6E00FF"/>
<path d="M57.1469 19.1218V27.0656C57.0781 33.2437 52.1344 38.2468 45.9844 38.4093H45.9688H28.0969C23.1469 38.5125 19.1719 42.5406 19.1531 47.4999V64.5406C19.1531 69.3874 23.3688 72.2406 28.0969 73.6343C30.7688 74.4999 33.8438 75 37.0344 75C40.225 75 43.3 74.5 46.1813 73.575L45.9688 73.6343C50.4688 72.3312 54.9125 69.7031 54.9125 64.5406V57.7156H37.0406V55.4437H63.8594C69.0594 55.4437 70.9969 51.8156 72.8063 46.375C73.6813 43.6562 74.1844 40.5281 74.1844 37.2812C74.1844 34.0343 73.6813 30.9062 72.7469 27.9718L72.8063 28.1906C71.5219 23.0156 69.0563 19.1218 63.8594 19.1218H57.1469ZM47.0969 62.2687H47.15C49.0344 62.2687 50.5594 63.7968 50.5594 65.6781C50.5594 67.5593 49.0313 69.0874 47.15 69.0874C45.2656 69.0874 43.7406 67.5593 43.7406 65.6781C43.7406 65.6749 43.7406 65.6687 43.7406 65.6656C43.7406 65.6593 43.7406 65.65 43.7406 65.6437C43.7406 63.7843 45.2406 62.2781 47.0969 62.2687Z" fill="#6E00FF"/>
</g>
<defs>
<clipPath id="clip0_8_228">
<rect width="75" height="75" fill="white"/>
</clipPath>
</defs>
</svg>
